<?xml version="1.0" encoding="UTF-8"?><svg id="Layer_2" xmlns="http://www.w3.org/2000/svg" viewBox="0 0 78.02 74.87"><defs><style>.cls-1{fill:#e11e2d;strokeWidth:0px;}</style></defs><g id="Logo_01:_600_x_600_px"><g id="Text"><path class="cls-1" d="m39.01,31.12c-3.84,0-6.95-3.11-6.95-6.94V6.95c0-3.83,3.1-6.95,6.95-6.95s6.95,3.12,6.95,6.95v17.23c0,3.84-3.11,6.94-6.95,6.94"/><path class="cls-1" d="m54.68,42.51c-2.92,0-5.65-1.87-6.6-4.81-1.19-3.65.81-7.57,4.46-8.75l16.38-5.33c3.65-1.18,7.58.81,8.76,4.46,1.18,3.65-.82,7.57-4.46,8.75l-16.39,5.33c-.72.23-1.44.34-2.15.34"/><path class="cls-1" d="m23.34,42.51c-.72,0-1.45-.11-2.16-.34l-16.37-5.33c-3.66-1.18-5.66-5.11-4.46-8.75,1.18-3.65,5.1-5.64,8.76-4.46l16.37,5.33c3.64,1.18,5.64,5.11,4.46,8.75-.95,2.94-3.67,4.81-6.6,4.81"/><path class="cls-1" d="m19.19,74.87c-1.41,0-2.84-.44-4.07-1.33-3.11-2.25-3.79-6.6-1.54-9.7l10.12-13.93c2.26-3.11,6.61-3.8,9.7-1.54,3.11,2.25,3.79,6.6,1.54,9.7l-10.12,13.94c-1.37,1.87-3.48,2.86-5.63,2.86"/><path class="cls-1" d="m58.83,74.87c-2.15,0-4.26-.99-5.63-2.87l-10.12-13.94c-2.26-3.1-1.57-7.44,1.53-9.7,3.11-2.25,7.46-1.56,9.72,1.55l10.11,13.93c2.26,3.1,1.57,7.45-1.54,9.71-1.23.89-2.65,1.33-4.07,1.33"/></g></g></svg>